<?xml version="1.0" standalone="no"?>
<!DOCTYPE svg PUBLIC "-//W3C//DTD SVG 20010904//EN"
 "http://www.w3.org/TR/2001/REC-SVG-20010904/DTD/svg10.dtd">
<svg version="1.0" xmlns="http://www.w3.org/2000/svg"
 width="153.000000pt" height="153.000000pt" viewBox="0 0 153.000000 153.000000"
 preserveAspectRatio="xMidYMid meet">
<metadata>
Created by potrace 1.14, written by Peter Selinger 2001-2017
</metadata>
<g transform="translate(0.000000,153.000000) scale(0.100000,-0.100000)"
fill="#000000" stroke="none">
<path d="M557 1389 c-79 -26 -148 -59 -175 -86 -7 -7 -16 -13 -20 -13 -23 -1
-162 -156 -162 -180 0 -6 -4 -10 -8 -10 -12 0 -50 -94 -79 -195 -3 -11 -7 -66
-8 -123 -3 -78 1 -120 16 -170 54 -192 162 -328 330 -417 246 -129 544 -86
754 112 40 37 106 126 120 160 3 7 7 19 10 25 3 7 9 20 14 28 23 38 44 143 47
230 4 97 -12 194 -41 257 -8 17 -15 34 -15 38 0 3 -20 37 -44 73 -77 117 -144
176 -266 235 -146 72 -322 85 -473 36z"/>
<path d="M1521 1044 c0 -11 3 -14 6 -6 3 7 2 16 -1 19 -3 4 -6 -2 -5 -13z"/>
</g>
</svg>
